HIERARCHY
ROOT joint_Root
{
  OFFSET 0 0 0
  CHANNELS 6 Xposition Yposition Zposition Zrotation Xrotation Yrotation
  JOINT Hips
  {
    OFFSET 0.847027 93.984 -452.225
    CHANNELS 6 Xposition Yposition Zposition Zrotation Xrotation Yrotation
    JOINT Spine
    {
      OFFSET 15.7357 0 0
      CHANNELS 6 Xposition Yposition Zposition Zrotation Xrotation Yrotation
      JOINT Chest
      {
        OFFSET 8.98455 -0.406207 0
        CHANNELS 6 Xposition Yposition Zposition Zrotation Xrotation Yrotation
        JOINT Neck
        {
          OFFSET 16.3773 0 0
          CHANNELS 6 Xposition Yposition Zposition Zrotation Xrotation Yrotation
          JOINT Head
          {
            OFFSET 6.45672 0 0
            CHANNELS 6 Xposition Yposition Zposition Zrotation Xrotation Yrotation
            End Site
            {
              OFFSET 0 0 0
            }
          }
        }
        JOINT Shoulder_L
        {
          OFFSET 12.9942 -0.242716 4.98039
          CHANNELS 6 Xposition Yposition Zposition Zrotation Xrotation Yrotation
          JOINT UpperArm_L
          {
            OFFSET 5.34809 0 0
            CHANNELS 6 Xposition Yposition Zposition Zrotation Xrotation Yrotation
            JOINT LowerArm_L
            {
              OFFSET 24.3286 1.87007e-05 0
              CHANNELS 6 Xposition Yposition Zposition Zrotation Xrotation Yrotation
              JOINT Hand_L
              {
                OFFSET 22.2916 0 0
                CHANNELS 6 Xposition Yposition Zposition Zrotation Xrotation Yrotation
                End Site
                {
                  OFFSET 0 0 0
                }
              }
            }
          }
        }
        JOINT Shoulder_R
        {
          OFFSET 12.9945 -0.242716 -4.98039
          CHANNELS 6 Xposition Yposition Zposition Zrotation Xrotation Yrotation
          JOINT UpperArm_R
          {
            OFFSET -5.34813 0 0
            CHANNELS 6 Xposition Yposition Zposition Zrotation Xrotation Yrotation
            JOINT LowerArm_R
            {
              OFFSET -24.3289 0.000322201 0
              CHANNELS 6 Xposition Yposition Zposition Zrotation Xrotation Yrotation
              JOINT Hand_R
              {
                OFFSET -22.2915 -0.000108084 0
                CHANNELS 6 Xposition Yposition Zposition Zrotation Xrotation Yrotation
                End Site
                {
                  OFFSET 0 0 0
                }
              }
            }
          }
        }
      }
    }
    JOINT UpperLeg_L
    {
      OFFSET -2.19248 -6.46944 0
      CHANNELS 6 Xposition Yposition Zposition Zrotation Xrotation Yrotation
      JOINT LowerLeg_L
      {
        OFFSET 39.0811 0 -1.23785e-05
        CHANNELS 6 Xposition Yposition Zposition Zrotation Xrotation Yrotation
        JOINT Foot_L
        {
          OFFSET 40.9854 0 -1.26872e-05
          CHANNELS 6 Xposition Yposition Zposition Zrotation Xrotation Yrotation
          JOINT Toes_L
          {
            OFFSET 11.7543 0 0
            CHANNELS 6 Xposition Yposition Zposition Zrotation Xrotation Yrotation
            End Site
            {
              OFFSET 0 0 0
            }
          }
        }
      }
    }
    JOINT UpperLeg_R
    {
      OFFSET -2.19251 6.46944 0
      CHANNELS 6 Xposition Yposition Zposition Zrotation Xrotation Yrotation
      JOINT LowerLeg_R
      {
        OFFSET -39.0811 -0.00228153 -0.0401928
        CHANNELS 6 Xposition Yposition Zposition Zrotation Xrotation Yrotation
        JOINT Foot_R
        {
          OFFSET -40.9854 0 0
          CHANNELS 6 Xposition Yposition Zposition Zrotation Xrotation Yrotation
          JOINT Toes_R
          {
            OFFSET -11.7543 0 0
            CHANNELS 6 Xposition Yposition Zposition Zrotation Xrotation Yrotation
            End Site
            {
              OFFSET 0 0 0
            }
          }
        }
      }
    }
  }
}
MOTION
Frames:	8
Frame Time:	0.0333333
0 0 0 0 0 -0 -1.83718 93.2147 0.246923 90.1027 -1.22469 2.80789 15.7357 5.1072e-06 -5.51765e-07 78.5196 87.1149 -78.3429 8.98455 -0.406207 -4.3199e-07 -2.10956 -1.16341 0.331846 16.3773 -1.3905e-06 -6.99897e-07 -0.734528 -0.278064 -0.0789925 6.45672 -1.25837e-06 -1.02172e-07 4.15864 -0.473153 -0.809726 12.9942 -0.242716 4.98039 -92.4115 8.27437 -88.6886 5.34809 -7.22636e-06 -6.2814e-07 -69.2009 13.9707 8.70855 24.3286 1.87007e-05 4.90208e-06 -1.57266 -3.65127 -23.3221 22.2916 -9.88446e-07 4.63217e-06 13.4415 5.59083 -10.8094 12.9945 -0.242716 -4.98039 87.2993 9.73968 -89.4195 -5.34813 -1.25947e-06 -3.79883e-06 -67.3535 11.6037 12.1166 -24.3289 0.000322201 -8.65921e-06 2.24991 4.23312 -28.0366 -22.2915 -0.000108084 -4.47941e-06 8.49894 5.48756 -6.04049 -2.19248 -6.46944 -1.22534e-07 -176.574 -2.00182 2.5256 39.0811 -6.73843e-06 -1.23785e-05 -0.00414588 0.0454868 10.4369 40.9854 -6.48686e-06 -1.26872e-05 -2.2391 2.18593 -60.4607 11.7543 -2.30145e-07 3.05095e-06 -0.00493461 0.0040557 -16.5768 -2.19251 6.46944 -1.45247e-06 177.563 12.8655 179.678 -39.0811 -0.00228153 -0.0401928 0.0014191 0.0385001 14.0358 -40.9854 7.72618e-06 5.99936e-06 0.58347 7.57792 -61.067 -11.7543 -5.6619e-06 -5.58687e-06 0.000238449 -0.000266246 -16.5765 
0 0 0 0 0 -0 -1.84337 93.2309 0.177657 90.1067 -1.15251 2.73902 15.7357 5.1072e-06 -5.51765e-07 78.3534 87.1347 -78.1702 8.98455 -0.406207 -4.3199e-07 -2.1517 -1.17239 0.344293 16.3773 -1.3905e-06 -6.99897e-07 -1.04301 -0.35774 -0.0733173 6.45672 -1.25837e-06 -1.02172e-07 4.06769 -0.550324 -0.790405 12.9942 -0.242716 4.98039 -92.3614 8.18195 -88.8408 5.34809 -7.22636e-06 -6.2814e-07 -69.4222 13.9046 8.92112 24.3286 1.87007e-05 4.90208e-06 -1.58109 -3.63046 -23.5535 22.2916 -9.88446e-07 4.63217e-06 13.4897 5.59218 -10.8853 12.9945 -0.242716 -4.98039 87.3656 9.60904 -89.5899 -5.34813 -1.25947e-06 -3.79883e-06 -67.5219 11.4723 12.3096 -24.3289 0.000322201 -8.65921e-06 2.20459 4.13824 -28.0904 -22.2915 -0.000108084 -4.47941e-06 8.68248 5.48797 -6.0563 -2.19248 -6.46944 -1.22534e-07 -176.583 -1.89751 2.47712 39.0811 -6.73843e-06 -1.23785e-05 -0.00395545 0.0446245 10.2755 40.9854 -6.48686e-06 -1.26872e-05 -2.25048 2.16278 -60.3257 11.7543 -2.30145e-07 3.05095e-06 -0.00340599 0.00280815 -16.5769 -2.19251 6.46944 -1.45247e-06 177.603 12.8542 179.624 -39.0811 -0.00228153 -0.0401928 0.00254272 0.0354714 13.9082 -40.9854 7.72618e-06 5.99936e-06 0.58265 7.50934 -60.9589 -11.7543 -5.6619e-06 -5.58687e-06 -4.11684e-05 3.54126e-05 -16.5738 
0 0 0 0 0 -0 -1.83676 93.2468 0.109265 90.1425 -1.08768 2.66449 15.7357 5.1072e-06 -5.51765e-07 78.16 87.152 -77.9914 8.98455 -0.406207 -4.3199e-07 -2.18966 -1.18302 0.314631 16.3773 -1.3905e-06 -6.99897e-07 -1.37631 -0.428076 -0.118178 6.45672 -1.25837e-06 -1.02172e-07 4.06515 -0.667757 -0.6861 12.9942 -0.242716 4.98039 -92.287 8.00169 -88.992 5.34809 -7.22636e-06 -6.2814e-07 -69.7074 13.8595 9.12934 24.3286 1.87007e-05 4.90208e-06 -1.57904 -3.59122 -23.7547 22.2916 -9.88446e-07 4.63217e-06 13.4393 5.59189 -10.869 12.9945 -0.242716 -4.98039 87.4247 9.50434 -89.7624 -5.34813 -1.25947e-06 -3.79883e-06 -67.7275 11.3116 12.4734 -24.3289 0.000322201 -8.65921e-06 2.13055 4.00866 -28.0318 -22.2915 -0.000108084 -4.47941e-06 8.67392 5.4878 -6.05017 -2.19248 -6.46944 -1.22534e-07 -176.632 -1.82935 2.44009 39.0811 -6.73843e-06 -1.23785e-05 -0.00399103 0.0439208 10.0771 40.9854 -6.48686e-06 -1.26872e-05 -2.24949 2.15198 -60.17 11.7543 -2.30145e-07 3.05095e-06 -0.00492248 0.00408348 -16.5768 -2.19251 6.46944 -1.45247e-06 177.624 12.6811 179.535 -39.0811 -0.00228153 -0.0401928 0.00393534 0.03015 13.8246 -40.9854 7.72618e-06 5.99936e-06 0.560597 7.29777 -60.8679 -11.7543 -5.6619e-06 -5.58687e-06 -0.00733408 0.00568238 -16.5735 
0 0 0 0 0 -0 -1.83358 93.2525 0.0271287 90.1596 -0.989562 2.6015 15.7357 5.1072e-06 -5.51765e-07 77.8076 87.1479 -77.6516 8.98455 -0.406207 -4.3199e-07 -2.18898 -1.21793 0.288785 16.3773 -1.3905e-06 -6.99897e-07 -1.63923 -0.50884 -0.117995 6.45672 -1.25837e-06 -1.02172e-07 4.17915 -0.780075 -0.624235 12.9942 -0.242716 4.98039 -92.2374 7.9165 -89.1626 5.34809 -7.22636e-06 -6.2814e-07 -69.8766 13.7657 9.37743 24.3286 1.87007e-05 4.90208e-06 -1.6349 -3.68611 -23.9402 22.2916 -9.88446e-07 4.63217e-06 13.4963 5.59289 -10.9261 12.9945 -0.242716 -4.98039 87.465 9.42602 -89.8725 -5.34813 -1.25947e-06 -3.79883e-06 -67.9378 11.3445 12.5775 -24.3289 0.000322201 -8.65921e-06 2.0422 3.85623 -27.9452 -22.2915 -0.000108084 -4.47941e-06 8.90803 5.48733 -6.03084 -2.19248 -6.46944 -1.22534e-07 -176.653 -1.80515 2.30155 39.0811 -6.73843e-06 -1.23785e-05 -0.00366948 0.0424491 10.0853 40.9854 -6.48686e-06 -1.26872e-05 -2.24065 2.21828 -60.1056 11.7543 -2.30145e-07 3.05095e-06 -0.000820806 0.000684431 -16.5775 -2.19251 6.46944 -1.45247e-06 177.678 12.3469 179.403 -39.0811 -0.00228153 -0.0401928 0.00458817 0.024285 13.8364 -40.9854 7.72618e-06 5.99936e-06 0.524416 6.9201 -60.8191 -11.7543 -5.6619e-06 -5.58687e-06 -0.0167319 0.012958 -16.5732 
0 0 0 0 0 -0 -1.82553 93.2632 -0.0895851 90.2051 -0.86522 2.61718 15.7357 5.1072e-06 -5.51765e-07 77.1892 87.0718 -77.0661 8.98455 -0.406207 -4.3199e-07 -2.05418 -1.30876 0.222888 16.3773 -1.3905e-06 -6.99897e-07 -1.85493 -0.623893 -0.0519855 6.45672 -1.25837e-06 -1.02172e-07 4.51909 -0.892103 -0.548769 12.9942 -0.242716 4.98039 -92.1848 7.80983 -89.3174 5.34809 -7.22636e-06 -6.2814e-07 -70.0675 13.6385 9.62095 24.3286 1.87007e-05 4.90208e-06 -1.70382 -3.80282 -24.1561 22.2916 -9.88446e-07 4.63217e-06 13.6172 5.5931 -10.9385 12.9945 -0.242716 -4.98039 87.5114 9.35624 -90.0325 -5.34813 -1.25947e-06 -3.79883e-06 -68.1474 11.2638 12.6941 -24.3289 0.000322201 -8.65921e-06 2.0399 3.83167 -28.0702 -22.2915 -0.000108084 -4.47941e-06 8.86303 5.48787 -6.05244 -2.19248 -6.46944 -1.22534e-07 -176.71 -1.68549 2.24647 39.0811 -6.73843e-06 -1.23785e-05 -0.00344321 0.0412438 10.0181 40.9854 -6.48686e-06 -1.26872e-05 -2.23677 2.23004 -59.9759 11.7543 -2.30145e-07 3.05095e-06 -0.00238411 0.00199893 -16.5772 -2.19251 6.46944 -1.45247e-06 177.717 11.8907 179.317 -39.0811 -0.00228153 -0.0401928 0.00742845 0.0156233 13.8578 -40.9854 7.72618e-06 5.99936e-06 0.47921 6.37961 -60.7501 -11.7543 -5.6619e-06 -5.58687e-06 -0.0244499 0.0189132 -16.5729 
0 0 0 0 0 -0 -1.82695 93.2793 -0.289362 90.2223 -0.714821 2.52201 15.7357 5.1072e-06 -5.51765e-07 76.8091 86.9487 -76.7081 8.98455 -0.406207 -4.3199e-07 -1.82349 -1.40069 0.179683 16.3773 -1.3905e-06 -6.99897e-07 -1.83386 -0.746911 0.00947674 6.45672 -1.25837e-06 -1.02172e-07 4.93934 -1.02108 -0.546608 12.9942 -0.242716 4.98039 -92.1358 7.69439 -89.4349 5.34809 -7.22636e-06 -6.2814e-07 -70.2924 13.6848 9.80368 24.3286 1.87007e-05 4.90208e-06 -1.86429 -4.09272 -24.5165 22.2916 -9.88446e-07 4.63217e-06 13.7725 5.59414 -10.9978 12.9945 -0.242716 -4.98039 87.5621 9.24696 -90.1602 -5.34813 -1.25947e-06 -3.79883e-06 -68.4163 11.182 12.7795 -24.3289 0.000322201 -8.65921e-06 2.01699 3.73126 -28.4337 -22.2915 -0.000108084 -4.47941e-06 8.95831 5.49107 -6.17756 -2.19248 -6.46944 -1.22534e-07 -176.722 -1.70276 1.97542 39.0811 -6.73843e-06 -1.23785e-05 -0.00270278 0.0363063 10.0266 40.9854 -6.48686e-06 -1.26872e-05 -2.22418 2.38872 -59.8103 11.7543 -2.30145e-07 3.05095e-06 -0.00462537 0.00387606 -16.5767 -2.19251 6.46944 -1.45247e-06 177.825 11.4278 179.076 -39.0811 -0.00228153 -0.0401928 0.0100239 0.00496067 13.8398 -40.9854 7.72618e-06 5.99936e-06 0.44404 5.82537 -60.6019 -11.7543 -5.6619e-06 -5.58687e-06 -0.043842 0.0339115 -16.572 
0 0 0 0 0 -0 -1.80086 93.319 -0.610422 90.2449 -0.741581 2.26832 15.7357 5.1072e-06 -5.51765e-07 77.6997 86.7727 -77.6107 8.98455 -0.406207 -4.3199e-07 -1.45857 -1.38191 0.160346 16.3773 -1.3905e-06 -6.99897e-07 -1.56885 -0.793182 0.0216262 6.45672 -1.25837e-06 -1.02172e-07 5.93053 -1.09157 -0.624352 12.9942 -0.242716 4.98039 -92.1096 7.64017 -89.5142 5.34809 -7.22636e-06 -6.2814e-07 -70.5012 13.8757 9.86957 24.3286 1.87007e-05 4.90208e-06 -2.16715 -4.6507 -25.0197 22.2916 -9.88446e-07 4.63217e-06 13.8462 5.59526 -11.0627 12.9945 -0.242716 -4.98039 87.6126 9.11521 -90.2559 -5.34813 -1.25947e-06 -3.79883e-06 -68.6997 11.4546 12.7641 -24.3289 0.000322201 -8.65921e-06 1.84797 3.33875 -29.0014 -22.2915 -0.000108084 -4.47941e-06 9.29258 5.4935 -6.27344 -2.19248 -6.46944 -1.22534e-07 -176.807 -1.50838 1.61061 39.0811 -6.73843e-06 -1.23785e-05 -0.00207581 0.033174 9.78421 40.9854 -6.48686e-06 -1.26872e-05 -2.23002 2.13542 -59.4661 11.7543 -2.30145e-07 3.05095e-06 -0.0047974 0.00403213 -16.5767 -2.19251 6.46944 -1.45247e-06 177.933 11.0668 178.657 -39.0811 -0.00228153 -0.0401928 0.0109865 -0.00525031 13.6399 -40.9854 7.72618e-06 5.99936e-06 0.41874 5.5296 -60.255 -11.7543 -5.6619e-06 -5.58687e-06 -0.0559849 0.0433459 -16.5717 
0 0 0 0 0 -0 -1.78025 93.3671 -1.07859 90.2345 -0.773272 1.96466 15.7357 5.1072e-06 -5.51765e-07 79.021 86.4404 -78.9491 8.98455 -0.406207 -4.3199e-07 -0.77618 -1.36093 0.134372 16.3773 -1.3905e-06 -6.99897e-07 -0.755643 -0.809926 0.0423546 6.45672 -1.25837e-06 -1.02172e-07 7.45588 -1.05461 -0.741384 12.9942 -0.242716 4.98039 -92.0957 7.61495 -89.5631 5.34809 -7.22636e-06 -6.2814e-07 -70.5668 13.9475 9.75587 24.3286 1.87007e-05 4.90208e-06 -2.36312 -4.89438 -25.8123 22.2916 -9.88446e-07 4.63217e-06 13.9049 5.59618 -11.1168 12.9945 -0.242716 -4.98039 87.6414 9.01807 -90.2774 -5.34813 -1.25947e-06 -3.79883e-06 -68.9214 11.8853 12.4139 -24.3289 0.000322201 -8.65921e-06 1.63408 2.88989 -29.5199 -22.2915 -0.000108084 -4.47941e-06 9.3834 5.49749 -6.43205 -2.19248 -6.46944 -1.22534e-07 -176.84 -1.45632 1.0401 39.0811 -6.73843e-06 -1.23785e-05 -0.00124893 0.02802 9.61994 40.9854 -6.48686e-06 -1.26872e-05 -2.22907 2.02014 -59.0376 11.7543 -2.30145e-07 3.05095e-06 -0.00721095 0.00604572 -16.5765 -2.19251 6.46944 -1.45247e-06 178.087 10.9587 178.113 -39.0811 -0.00228153 -0.0401928 0.0127879 -0.011073 13.3743 -40.9854 7.72618e-06 5.99936e-06 0.431023 5.42011 -59.7679 -11.7543 -5.6619e-06 -5.58687e-06 -0.0636113 0.0492756 -16.5715 
